PathFileType	4	(X/Y/Z)	D:\Share\Shared_Data\Ergonomics\Sit To Stand Pertubation\S3\Perturbed.trc
DataRate	CameraRate	NumFrames	NumMarkers	Units	OrigDataRate	OrigDataStartFrame	OrigNumFrames	
100	100	12	18	m	100	8381	221
Frame#	Time	R_ASIS			R_Pelvis			V_Sacral			L_Pelvis			L_ASIS			Clavical			R_Acromium			L_Acromium			Sternum			Torso			R_Thigh_Med			R_Thigh_Lat			R_Thigh			R_Shank_Med			R_Shank_Lat			R_Shank			R_Heel			R_Toe			
		X1	Y1	Z1	X2	Y2	Z2	X3	Y3	Z3	X4	Y4	Z4	X5	Y5	Z5	X6	Y6	Z6	X7	Y7	Z7	X8	Y8	Z8	X9	Y9	Z9	X10	Y10	Z10	X11	Y11	Z11	X12	Y12	Z12	X13	Y13	Z13	X14	Y14	Z14	X15	Y15	Z15	X16	Y16	Z16	X17	Y17	Z17	X18	Y18	Z18	

8381	83.8	-0.0064782114	0.64431885	0.14760635	-0.11806612	0.63213257	0.20337198	-0.22879759	0.62870728	0.016422045	-0.11441708	0.64702124	-0.1859669	-0.0036280041	0.64438391	-0.13644719	-0.018825232	1.0400529	-0.0031829476	-0.065123444	1.1005574	0.17052597	-0.060432186	1.100561	-0.15587106	0.0039607031	0.96473334	0.0037946725	-0.012940386	1.0276532	-0.064267128	0.33264456	0.4709856	0.06589418	0.32176819	0.45474371	0.1840349	0.15122328	0.57992999	0.1057644	0.29484177	0.10657676	0.096469147	0.28283026	0.095230865	0.17831592	0.28621582	0.27446176	0.19733229	0.22451613	0.058149216	0.13903848	0.4410206	0.056364925	0.11819226
8382	83.81	-0.0067675366	0.64431427	0.14782996	-0.11842884	0.63215143	0.20344124	-0.2288019	0.62871143	0.016279354	-0.11404714	0.64703564	-0.18590739	-0.0033694353	0.6443847	-0.13615715	-0.018872675	1.0400951	-0.0029585195	-0.065382927	1.1006238	0.17066875	-0.060227688	1.100545	-0.15572464	0.003944551	0.96478412	0.0040882635	-0.012876164	1.0277605	-0.064001305	0.33249173	0.47107343	0.066448067	0.32149994	0.45469305	0.18455334	0.15104314	0.57994702	0.10622544	0.29481686	0.10659294	0.096527237	0.28282053	0.095210648	0.17839191	0.28606134	0.27437979	0.19760837	0.22450543	0.058138325	0.13904913	0.44100635	0.056375198	0.11820621
8383	83.82	-0.0070554156	0.6443078	0.14804791	-0.11879177	0.63217554	0.20350333	-0.22880133	0.62872833	0.016129995	-0.11366473	0.64706219	-0.18585898	-0.0031004519	0.64438788	-0.13587373	-0.018921759	1.0401425	-0.0027356296	-0.065652618	1.1006987	0.17081026	-0.060038029	1.1005297	-0.15558725	0.0039316387	0.96484918	0.0043840394	-0.012813317	1.0278998	-0.063729778	0.33233301	0.47118945	0.066992683	0.32121832	0.45464178	0.18508757	0.15085358	0.57996313	0.10668848	0.29480383	0.10661326	0.096587914	0.28281448	0.095180199	0.17845375	0.28589914	0.2742897	0.19789777	0.22449243	0.058123772	0.13906024	0.44098907	0.056388218	0.11822218
8384	83.83	-0.0073403993	0.64429822	0.14826625	-0.11915482	0.63220032	0.2035583	-0.22879469	0.6287558	0.015969206	-0.11326731	0.64710126	-0.18581857	-0.0028186882	0.64439075	-0.13559416	-0.018969652	1.0401946	-0.0025174835	-0.065931793	1.1007787	0.17094818	-0.059868435	1.1005153	-0.15546527	0.0039248002	0.96492883	0.0046775022	-0.012747228	1.0280625	-0.063459137	0.33217554	0.47129611	0.06756311	0.32092532	0.45459052	0.18563318	0.15065529	0.57998022	0.10715342	0.29479416	0.10663601	0.096650024	0.28281061	0.095148712	0.17851346	0.28573029	0.27419144	0.19819797	0.22447803	0.058105824	0.13907111	0.4409689	0.05640361	0.11823962
8385	83.84	-0.0076226711	0.64428424	0.14848857	-0.11951804	0.63222131	0.20360643	-0.22878162	0.62879132	0.015792886	-0.11285452	0.64715259	-0.18578214	-0.002523778	0.64439044	-0.1353152	-0.019013367	1.0402517	-0.0023064508	-0.066218529	1.1008605	0.17108084	-0.059719448	1.1005027	-0.15536015	0.0039268386	0.96502106	0.0049635148	-0.012673279	1.0282369	-0.063196934	0.33202142	0.47137796	0.06817186	0.32062436	0.45453934	0.18618588	0.15045013	0.57999921	0.10762086	0.29478137	0.10665913	0.096711632	0.2828085	0.095120476	0.17857713	0.28555627	0.2740874	0.198505	0.22446281	0.05808498	0.13908122	0.44094568	0.05642115	0.11825797
8386	83.85	-0.0079028969	0.64426532	0.14871582	-0.1198814	0.63223517	0.2036479	-0.22876251	0.62883185	0.015598989	-0.11242781	0.64721478	-0.18574637	-0.0022174394	0.64438483	-0.13503384	-0.019050186	1.0403138	-0.0021042104	-0.066509354	1.1009415	0.17120724	-0.059587296	1.1004928	-0.15526874	0.0039396725	0.96512299	0.0052373924	-0.012588332	1.0284113	-0.062949806	0.33186908	0.47144598	0.068805	0.32031931	0.45448685	0.18674178	0.15024103	0.58002008	0.10809139	0.29476114	0.10668111	0.096770088	0.28281067	0.09508828	0.17863632	0.28537939	0.27398163	0.19881377	0.22444684	0.058061592	0.13909009	0.44091931	0.056440708	0.11827642
8387	83.86	-0.0081810427	0.64424152	0.14894675	-0.12024487	0.63223956	0.20368263	-0.22873846	0.62887421	0.015387968	-0.1119902	0.64728485	-0.18571024	-0.0019034219	0.64437256	-0.13474835	-0.019078033	1.0403798	-0.0019124392	-0.066799751	1.101021	0.17132657	-0.059465923	1.1004857	-0.15518575	0.0039638951	0.96523053	0.0054959078	-0.012491604	1.0285764	-0.062722466	0.33171637	0.47152542	0.069433708	0.32001431	0.45443091	0.18729727	0.15003119	0.58004108	0.10856496	0.2947316	0.10670125	0.096822456	0.2828219	0.0950355	0.17866953	0.28520215	0.27387814	0.19911942	0.22442989	0.058035877	0.13909717	0.44088947	0.056462193	0.11829416
8388	83.87	-0.0084560966	0.64421417	0.14917845	-0.1206086	0.63223383	0.20371016	-0.22871101	0.62891498	0.015162814	-0.11154619	0.64735895	-0.18567468	-0.0015871737	0.64435431	-0.13445876	-0.019095568	1.0404475	-0.001733303	-0.067084991	1.1010992	0.17143736	-0.05934967	1.1004803	-0.15510681	0.003999114	0.96533966	0.0057375202	-0.012384532	1.0287252	-0.062517754	0.33156439	0.4716304	0.070038681	0.31971399	0.45437048	0.18784863	0.14982385	0.58006036	0.10904078	0.29469366	0.10671961	0.096865753	0.28284915	0.094945969	0.17865509	0.28502643	0.27377853	0.19941846	0.2244119	0.058008156	0.13910204	0.44085614	0.056485481	0.11831058
8389	83.88	-0.0087264252	0.64418542	0.14940765	-0.12097234	0.63221863	0.20373009	-0.22868185	0.62895105	0.014928701	-0.11110089	0.64743201	-0.18564084	-0.0012749153	0.64433124	-0.13416702	-0.019101982	1.0405139	-0.0015691135	-0.06736058	1.1011776	0.17153758	-0.059234852	1.100475	-0.15503036	0.0040445776	0.96544604	0.0059620013	-0.012269954	1.0288534	-0.062336761	0.33141949	0.47174637	0.070626122	0.31942322	0.4543067	0.1883918	0.14962239	0.58007721	0.109517	0.29465308	0.10673621	0.096897575	0.2828999	0.09481176	0.17858205	0.28485312	0.27368207	0.19970836	0.22439293	0.057978897	0.13910461	0.44081934	0.056510193	0.11832571
8390	83.89	-0.0089902916	0.64415796	0.14963258	-0.12133463	0.63219562	0.20374219	-0.22865233	0.6289801	0.014692144	-0.11065991	0.64749945	-0.18560892	-0.00097236151	0.64430542	-0.13387651	-0.019096668	1.0405758	-0.0014214773	-0.067622116	1.1012566	0.17162509	-0.059119167	1.1004678	-0.15495662	0.0040994978	0.9655451	0.0061700158	-0.012151062	1.0289587	-0.062178741	0.33128928	0.47184592	0.071213966	0.31914697	0.45424112	0.18892307	0.14943076	0.5800918	0.10999014	0.29461829	0.10675065	0.096919556	0.28297375	0.094640678	0.17845845	0.28468277	0.27358752	0.19998686	0.22437346	0.057948532	0.13910521	0.44077966	0.056535439	0.11834009
8391	83.9	-0.0092461262	0.64413507	0.14985323	-0.12169233	0.63216663	0.20374654	-0.22862296	0.62900024	0.014459915	-0.11022926	0.64755725	-0.18557863	-0.00068364441	0.64427863	-0.1335914	-0.019079168	1.0406307	-0.0012910718	-0.067864738	1.1013363	0.17169901	-0.059000278	1.1004565	-0.154886	0.0041630154	0.96563324	0.0063627124	-0.012030484	1.0290413	-0.06204142	0.33117807	0.47191272	0.071810989	0.31888867	0.45417453	0.18943958	0.14925317	0.58010541	0.11045512	0.29459442	0.10676276	0.096941643	0.2830553	0.094461937	0.17831604	0.28451703	0.27349429	0.200252	0.22435425	0.057917503	0.13910451	0.44073831	0.056559917	0.11835445
8392	83.91	-0.0094922247	0.64411932	0.15007027	-0.12204052	0.63213269	0.20374423	-0.22859352	0.62901154	0.014238089	-0.10981511	0.64760364	-0.18555043	-0.00041097093	0.64425238	-0.13331607	-0.019049503	1.0406764	-0.0011780837	-0.068083366	1.101415	0.17175961	-0.058875587	1.1004391	-0.15481879	0.0042340188	0.96570764	0.0065410571	-0.01190995	1.0291021	-0.061921879	0.33108603	0.47194815	0.072410873	0.31865048	0.45410629	0.18993913	0.14909355	0.58011987	0.11090617	0.29457837	0.10677305	0.096977257	0.28312006	0.09431633	0.17819891	0.28435934	0.27340186	0.20050266	0.22433632	0.05788652	0.13910318	0.44069733	0.056582363	0.11836927
